<?xml version="1.0" encoding="UTF-8"?>
<svg version="1.1" xmlns="http://www.w3.org/2000/svg" width="64" height="70">
<path d="M0 0 C6.6 0 13.2 0 20 0 C20.495 1.485 20.495 1.485 21 3 C22.98045559 3.66179847 22.98045559 3.66179847 25 4 C25.495 4.495 25.495 4.495 26 5 C25.86084194 7.20876402 25.71357239 9.41701888 25.5625 11.625 C25.39720643 16.72849518 25.39720643 16.72849518 27.56640625 21.1328125 C28.95833498 22.22628213 30.38068609 23.28192797 31.828125 24.30078125 C37.88519521 29.03967611 40.69559666 36.63104445 42 44 C42.29563546 46.8822811 42.36979135 49.72899047 42.375 52.625 C42.39949219 53.34945312 42.42398438 54.07390625 42.44921875 54.8203125 C42.47714462 59.95867179 41.6781957 63.1407239 38 67 C32.19195205 69.75173406 26.47256225 70.44939038 20.125 70.3984375 C19.31562988 70.40130768 18.50625977 70.40417786 17.67236328 70.40713501 C15.9749277 70.40916064 14.27746797 70.40373689 12.58007812 70.39111328 C10.00597122 70.37503729 7.43343402 70.39101279 4.859375 70.41015625 C3.19791326 70.40817355 1.53645248 70.40432932 -0.125 70.3984375 C-0.88151855 70.40451019 -1.63803711 70.41058289 -2.41748047 70.4168396 C-7.93193431 70.34550843 -12.98587759 69.37807314 -18 67 C-21.58174231 63.22509748 -22.48256037 60.12678739 -22.50537109 54.93554688 C-22.48297363 54.21431641 -22.46057617 53.49308594 -22.4375 52.75 C-22.42283691 51.99783203 -22.40817383 51.24566406 -22.39306641 50.47070312 C-22.06024077 40.62584794 -19.45646138 32.6019626 -13 25 C-11.72487057 24.08078019 -10.43332054 23.18383088 -9.125 22.3125 C-7.24114029 21.01069513 -7.24114029 21.01069513 -6 19 C-5.59383419 15.26754995 -5.68468603 11.78981555 -5.94921875 8.046875 C-5.97435547 6.53867187 -5.97435547 6.53867187 -6 5 C-5.34 4.34 -4.68 3.68 -4 3 C-3.01 3 -2.02 3 -1 3 C-0.67 2.01 -0.34 1.02 0 0 Z " fill="#D85300" transform="translate(22,0)"/>
<path d="M0 0 C6.6 0 13.2 0 20 0 C20.495 1.485 20.495 1.485 21 3 C22.98045559 3.66179847 22.98045559 3.66179847 25 4 C25.495 4.495 25.495 4.495 26 5 C25.86084194 7.20876402 25.71357239 9.41701888 25.5625 11.625 C25.39720643 16.72849518 25.39720643 16.72849518 27.56640625 21.1328125 C28.95833498 22.22628213 30.38068609 23.28192797 31.828125 24.30078125 C37.88519521 29.03967611 40.69559666 36.63104445 42 44 C42.29563546 46.8822811 42.36979135 49.72899047 42.375 52.625 C42.39949219 53.34945312 42.42398438 54.07390625 42.44921875 54.8203125 C42.47714462 59.95867179 41.6781957 63.1407239 38 67 C32.19195205 69.75173406 26.47256225 70.44939038 20.125 70.3984375 C19.31562988 70.40130768 18.50625977 70.40417786 17.67236328 70.40713501 C15.9749277 70.40916064 14.27746797 70.40373689 12.58007812 70.39111328 C10.00597122 70.37503729 7.43343402 70.39101279 4.859375 70.41015625 C3.19791326 70.40817355 1.53645248 70.40432932 -0.125 70.3984375 C-0.88151855 70.40451019 -1.63803711 70.41058289 -2.41748047 70.4168396 C-7.93193431 70.34550843 -12.98587759 69.37807314 -18 67 C-21.58174231 63.22509748 -22.48256037 60.12678739 -22.50537109 54.93554688 C-22.48297363 54.21431641 -22.46057617 53.49308594 -22.4375 52.75 C-22.42283691 51.99783203 -22.40817383 51.24566406 -22.39306641 50.47070312 C-22.06024077 40.62584794 -19.45646138 32.6019626 -13 25 C-11.72487057 24.08078019 -10.43332054 23.18383088 -9.125 22.3125 C-7.24114029 21.01069513 -7.24114029 21.01069513 -6 19 C-5.59383419 15.26754995 -5.68468603 11.78981555 -5.94921875 8.046875 C-5.97435547 6.53867187 -5.97435547 6.53867187 -6 5 C-5.34 4.34 -4.68 3.68 -4 3 C-3.01 3 -2.02 3 -1 3 C-0.67 2.01 -0.34 1.02 0 0 Z M-14 29 C-19.84042605 38.19008216 -22.12247293 48.15518459 -21 59 C-19.43341825 62.7597962 -17.56493511 65.02990428 -14 67 C-6.16688799 69.229864 1.32858945 69.29967173 9.4375 69.25 C11.3256543 69.26160156 11.3256543 69.26160156 13.25195312 69.2734375 C25.64529935 69.39728763 25.64529935 69.39728763 37 65.125 C41.1596042 60.70542053 41.37937862 56.9544614 41.24609375 51.06640625 C40.36184392 40.04837265 36.63110013 30.0743603 28.5 22.375 C25.88658082 20.30289036 25.04070997 20.00444109 21.5625 19.625 C20.716875 19.74875 19.87125 19.8725 19 20 C19.639375 20.7425 20.27875 21.485 20.9375 22.25 C22.78333407 24.7111121 23.56069174 26.03466926 24 29 C22.68 29.33 21.36 29.66 20 30 C19.67 32.64 19.34 35.28 19 38 C17.68 38 16.36 38 15 38 C15 37.01 15 36.02 15 35 C16.32 34.67 17.64 34.34 19 34 C19 33.01 19 32.02 19 31 C13.39 31 7.78 31 2 31 C1.67 32.65 1.34 34.3 1 36 C2.98 36.33 4.96 36.66 7 37 C5.02 37.66 3.04 38.32 1 39 C1 39.99 1 40.98 1 42 C3.31 42.33 5.62 42.66 8 43 C5.69 43.33 3.38 43.66 1 44 C1.78486275 49.74559784 4.526542 53.38783647 9 57 C12.79767901 57.67174175 12.79767901 57.67174175 16 57 C15.45859375 56.27683594 15.45859375 56.27683594 14.90625 55.5390625 C14.4421875 54.90742187 13.978125 54.27578125 13.5 53.625 C13.0359375 52.99851563 12.571875 52.37203125 12.09375 51.7265625 C11 50 11 50 11 48 C11.99 47.67 12.98 47.34 14 47 C13.01 47.495 13.01 47.495 12 48 C13.20632452 51.43338516 14.38477184 53.50364585 17 56 C17 56.66 17 57.32 17 58 C12.8159337 58.67243923 10.39466856 58.80570379 6.6875 56.6640625 C2.56142088 52.9358553 0.84014307 49.69494812 0.5 44.171875 C0.37387476 39.4086766 0.73198327 34.79079898 1 30 C6.94 30 12.88 30 19 30 C18.01 28.68 17.02 27.36 16 26 C16.66 26.66 17.32 27.32 18 28 C20.58354218 28.16687448 20.58354218 28.16687448 23 28 C21.55754029 24.63426067 19.916532 22.24989611 17 20 C14.51948778 20.26259783 14.51948778 20.26259783 12 21 C10.3276973 20.69620308 8.66148572 20.35826537 7 20 C-3.09418649 18.50560926 -8.01888366 20.73919588 -14 29 Z " fill="#2B1700" transform="translate(22,0)"/>
<path d="M0 0 C0.17942163 3.94727588 0.09350689 6.5980513 -2 10 C-0.08895362 8.08895362 0.82338341 5.40439042 2 3 C2.66 3 3.32 3 4 3 C4.33 2.34 4.66 1.68 5 1 C7 3 7 3 7.125 6.625 C7.08375 7.73875 7.0425 8.8525 7 10 C6.01 10.495 6.01 10.495 5 11 C4.34 12.98 3.68 14.96 3 17 C-4.92 17 -12.84 17 -21 17 C-23.19379845 8.2248062 -23.19379845 8.2248062 -23 4 C-21.3125 1.4375 -21.3125 1.4375 -18 0 C-14.85235769 -0.20928473 -11.79553795 -0.18672615 -8.64453125 -0.04296875 C-5.1173071 0.01434213 -3.55300511 -1.06590153 0 0 Z " fill="#271200" transform="translate(41,2)"/>
<path d="M0 0 C0.73283203 0.01353516 1.46566406 0.02707031 2.22070312 0.04101562 C4.12657323 0.07776794 6.03209774 0.13151974 7.9375 0.1875 C8.5975 0.1875 9.2575 0.1875 9.9375 0.1875 C14.75825896 0.57837235 16.84494041 2.56478733 19.9375 6.1875 C19.9375 6.8475 19.9375 7.5075 19.9375 8.1875 C16.22150809 8.38836443 15.16541555 8.3394437 11.9375 6.1875 C13.2575 7.5075 14.5775 8.8275 15.9375 10.1875 C9.9975 10.1875 4.0575 10.1875 -2.0625 10.1875 C-2.536875 11.651875 -3.01125 13.11625 -3.5 14.625 C-4.9375 19.0625 -4.9375 19.0625 -6.0625 20.1875 C-7.72867115 20.22813832 -9.39638095 20.230221 -11.0625 20.1875 C-11.7225 18.8675 -12.3825 17.5475 -13.0625 16.1875 C-15.0425 16.1875 -17.0225 16.1875 -19.0625 16.1875 C-18.53856693 12.12347861 -17.46520223 10.05116696 -14.6875 7.0625 C-14.08164063 6.39992188 -13.47578125 5.73734375 -12.8515625 5.0546875 C-12.26117187 4.43851563 -11.67078125 3.82234375 -11.0625 3.1875 C-10.65902344 2.61644531 -10.25554688 2.04539062 -9.83984375 1.45703125 C-6.87651423 -0.65963269 -3.49588112 -0.12054762 0 0 Z " fill="#FEAE2E" transform="translate(25.0625,19.8125)"/>
<path d="M0 0 C5.61 0 11.22 0 17 0 C16.67 1.32 16.34 2.64 16 4 C15.01 4 14.02 4 13 4 C13 4.99 13 5.98 13 7 C14.32 7 15.64 7 17 7 C16.67 8.32 16.34 9.64 16 11 C15.01 11 14.02 11 13 11 C12.8453125 11.928125 12.8453125 11.928125 12.6875 12.875 C12 15 12 15 9 17 C10.49836105 20.11198065 12.19933758 23.0534615 14 26 C11.14769549 26.5348071 9.74166558 26.76356667 7 26 C3.83486162 23.37431129 1.21131538 20.46918049 -1 17 C-1 15.68 -1 14.36 -1 13 C2.465 12.505 2.465 12.505 6 12 C3.69 11.67 1.38 11.34 -1 11 C-0.67 9.68 -0.34 8.36 0 7 C1.65 6.67 3.3 6.34 5 6 C2.03 5.505 2.03 5.505 -1 5 C-0.67 3.35 -0.34 1.7 0 0 Z " fill="#F5D007" transform="translate(24,31)"/>
<path d="M0 0 C0.33 0 0.66 0 1 0 C1 1.010625 1 2.02125 1 3.0625 C1.50415737 6.71581425 2.84682318 8.03995854 5.6875 10.3125 C12.71964946 15.94326959 16.4373288 23.17201387 18 32 C18.29563546 34.8822811 18.36979135 37.72899047 18.375 40.625 C18.39949219 41.34945312 18.42398438 42.07390625 18.44921875 42.8203125 C18.47714462 47.95867179 17.6781957 51.1407239 14 55 C8.19195205 57.75173406 2.47256225 58.44939038 -3.875 58.3984375 C-5.08905518 58.40274277 -5.08905518 58.40274277 -6.32763672 58.40713501 C-8.0250723 58.40916064 -9.72253203 58.40373689 -11.41992188 58.39111328 C-13.99402878 58.37503729 -16.56656598 58.39101279 -19.140625 58.41015625 C-20.80208674 58.40817355 -22.46354752 58.40432932 -24.125 58.3984375 C-25.25977783 58.40754654 -25.25977783 58.40754654 -26.41748047 58.4168396 C-31.93193431 58.34550843 -36.98587759 57.37807314 -42 55 C-45.58189529 51.22493624 -46.48364154 48.12577265 -46.50463867 42.93408203 C-46.48248291 42.21333496 -46.46032715 41.49258789 -46.4375 40.75 C-46.41876831 39.62827393 -46.41876831 39.62827393 -46.3996582 38.48388672 C-46.19998825 32.18303887 -45.82798533 25.0963343 -41.39453125 20.2421875 C-40.93433594 19.83226563 -40.47414063 19.42234375 -40 19 C-40.52302564 22.87038975 -41.43098857 26.46205199 -42.5625 30.1875 C-44.39436733 36.80207513 -45.33027782 43.45259248 -42.875 50 C-38.21519043 54.97046354 -32.35563143 55.8469334 -25.81542969 56.14526367 C-22.12686148 56.16994258 -18.43865686 56.18565383 -14.75 56.1875 C-12.84154297 56.20586914 -12.84154297 56.20586914 -10.89453125 56.22460938 C1.87694937 56.58312541 1.87694937 56.58312541 13.0625 51.5 C16.89793807 46.55104765 16.40967146 42.09196632 16 36 C14.39257256 25.38825445 10.68965539 16.59475321 2.125 9.875 C0.76238662 8.89913497 -0.60833213 7.93396377 -2 7 C-1.34 4.69 -0.68 2.38 0 0 Z " fill="#050200" transform="translate(46,12)"/>
<path d="M0 0 C0.32420072 4.64687703 -0.03192408 7.33937303 -3 11 C-5.91796875 11.48828125 -5.91796875 11.48828125 -9.1875 11.3125 C-10.27417969 11.26738281 -11.36085938 11.22226563 -12.48046875 11.17578125 C-13.72763672 11.08876953 -13.72763672 11.08876953 -15 11 C-17.19732813 7.06312043 -18.18345639 4.48703763 -18 0 C-16.73542969 0.01740234 -16.73542969 0.01740234 -15.4453125 0.03515625 C-14.34960938 0.04417969 -13.25390625 0.05320313 -12.125 0.0625 C-10.48917969 0.07990234 -10.48917969 0.07990234 -8.8203125 0.09765625 C-0.62086093 -0.18625828 -0.62086093 -0.18625828 0 0 Z " fill="#FE8900" transform="translate(41,2)"/>
<path d="M0 0 C21.84615385 0 21.84615385 0 25.8125 3.4375 C28 6 28 6 28 8 C24.28400809 8.20086443 23.22791555 8.1519437 20 6 C21.32 7.32 22.64 8.64 24 10 C18.06 10 12.12 10 6 10 C6.33 7.03 6.66 4.06 7 1 C4.69 1 2.38 1 0 1 C0 0.67 0 0.34 0 0 Z " fill="#462204" transform="translate(17,20)"/>
<path d="M0 0 C6.6 0 13.2 0 20 0 C20.495 1.485 20.495 1.485 21 3 C21.66 3 22.32 3 23 3 C23 3.66 23 4.32 23 5 C22.34 5.33 21.68 5.66 21 6 C19.94647157 8.30965848 18.94280904 10.6429774 18 13 C17.34 12.67 16.68 12.34 16 12 C16.33 11.46375 16.66 10.9275 17 10.375 C18.22699204 7.4608939 18.14233286 5.13132292 18 2 C17.27554688 2.0721875 16.55109375 2.144375 15.8046875 2.21875 C7.48351648 3.01758242 7.48351648 3.01758242 3.5625 2.875 C0.32618615 3.03286897 -0.77308396 3.66100723 -3 6 C-2.8815025 8.92110058 -2.8815025 8.92110058 -2.125 12.125 C-1.4129242 18.21494348 -1.4129242 18.21494348 -4.00390625 21.6796875 C-6.6875 24 -6.6875 24 -9.38671875 26 C-12.10169236 28.07782734 -13.97126774 30.26334946 -16 33 C-16.33 32.01 -16.66 31.02 -17 30 C-15.54540569 28.35086118 -14.08620743 26.70578218 -12.625 25.0625 C-11.40683594 23.68771484 -11.40683594 23.68771484 -10.1640625 22.28515625 C-8 20 -8 20 -6 19 C-6.02320313 18.01257813 -6.04640625 17.02515625 -6.0703125 16.0078125 C-6.08835937 14.72648438 -6.10640625 13.44515625 -6.125 12.125 C-6.14820313 10.84882813 -6.17140625 9.57265625 -6.1953125 8.2578125 C-6 5 -6 5 -4 3 C-3.01 3 -2.02 3 -1 3 C-0.67 2.01 -0.34 1.02 0 0 Z " fill="#100A00" transform="translate(22,0)"/>
<path d="M0 0 C1.00023193 0.00523682 2.00046387 0.01047363 3.03100586 0.01586914 C4.1105957 0.0190918 5.19018555 0.02231445 6.30249023 0.02563477 C8.00695312 0.03820313 8.00695312 0.03820313 9.74584961 0.05102539 C11.45611328 0.05779297 11.45611328 0.05779297 13.20092773 0.06469727 C16.02845312 0.07652792 18.85587601 0.09301129 21.68334961 0.11352539 C22.24584961 2.05102539 22.24584961 2.05102539 22.68334961 4.11352539 C21.68334961 5.11352539 21.68334961 5.11352539 19.36669922 5.22705078 C18.36646729 5.22181396 17.36623535 5.21657715 16.33569336 5.21118164 C15.25610352 5.20795898 14.17651367 5.20473633 13.06420898 5.20141602 C11.92790039 5.19303711 10.7915918 5.1846582 9.62084961 5.17602539 C8.48067383 5.17151367 7.34049805 5.16700195 6.16577148 5.16235352 C3.3382461 5.15052287 0.51082321 5.13403949 -2.31665039 5.11352539 C-2.87915039 3.17602539 -2.87915039 3.17602539 -3.31665039 1.11352539 C-2.31665039 0.11352539 -2.31665039 0.11352539 0 0 Z " fill="#B87506" transform="translate(22.316650390625,13.886474609375)"/>
<path d="M0 0 C1.875 0.125 1.875 0.125 4 1 C4.70381157 2.98723268 5.3711811 4.98777953 6 7 C6.99 7.33 7.98 7.66 9 8 C9.66 6.68 10.32 5.36 11 4 C11.99 4 12.98 4 14 4 C11.125 10.875 11.125 10.875 10 12 C8.33382885 12.04063832 6.66611905 12.042721 5 12 C4.34 10.68 3.68 9.36 3 8 C1.02 8 -0.96 8 -3 8 C-2.45276317 4.62537285 -1.9451 2.91765 0 0 Z " fill="#FB901A" transform="translate(9,28)"/>
<path d="M0 0 C3.96 0 7.92 0 12 0 C12 2.31 12 4.62 12 7 C13.83700789 7.77242269 13.83700789 7.77242269 16 8 C17.77190909 6.64555699 17.77190909 6.64555699 19 5 C20.65 6.65 22.3 8.3 24 10 C18.06 10 12.12 10 6 10 C6.33 7.03 6.66 4.06 7 1 C4.69 1 2.38 1 0 1 C0 0.67 0 0.34 0 0 Z " fill="#FB8413" transform="translate(17,20)"/>
<path d="M0 0 C-0.99 0.495 -0.99 0.495 -2 1 C-0.50163895 4.11198065 1.19933758 7.0534615 3 10 C-0.0625 10.5 -0.0625 10.5 -4 10 C-6.74060364 7.63503895 -8.93536949 4.96829857 -11 2 C-11 1.67 -11 1.34 -11 1 C-3.57142857 -1.42857143 -3.57142857 -1.42857143 0 0 Z " fill="#F3AF05" transform="translate(35,47)"/>
<path d="M0 0 C3.96 0 7.92 0 12 0 C11 5 11 5 9.75 6.875 C8 8 8 8 5.5 8 C2.21963533 6.68785413 1.46096023 5.15259838 0 2 C0 1.34 0 0.68 0 0 Z " fill="#FC9900" transform="translate(26,2)"/>
<path d="M0 0 C7.26 0 14.52 0 22 0 C21.67 0.66 21.34 1.32 21 2 C10.605 2.495 10.605 2.495 0 3 C0 2.01 0 1.02 0 0 Z " fill="#FDBB08" transform="translate(19,15)"/>
<path d="M0 0 C4.82034262 0.41317222 6.90992611 2.38019915 10 6 C10 6.66 10 7.32 10 8 C7.8125 8.375 7.8125 8.375 5 8 C2.91167347 6.17130326 1.61663209 4.30947441 0 2 C0 1.34 0 0.68 0 0 Z " fill="#EF8F12" transform="translate(35,20)"/>
<path d="M0 0 C0.33 0.99 0.66 1.98 1 3 C1.66 3 2.32 3 3 3 C3 3.66 3 4.32 3 5 C2.01 5.495 2.01 5.495 1 6 C-0.05352843 8.30965848 -1.05719096 10.6429774 -2 13 C-2.66 12.67 -3.32 12.34 -4 12 C-3.67 11.46375 -3.34 10.9275 -3 10.375 C-1.77300796 7.4608939 -1.85766714 5.13132292 -2 2 C-5.63 2.33 -9.26 2.66 -13 3 C-13 2.67 -13 2.34 -13 2 C-8.49646738 0.24252386 -4.82360189 -0.19294408 0 0 Z " fill="#231700" transform="translate(42,0)"/>
<path d="M0 0 C0.99 0.33 1.98 0.66 3 1 C2.67 3.31 2.34 5.62 2 8 C0.35 8 -1.3 8 -3 8 C-1.125 1.125 -1.125 1.125 0 0 Z " fill="#EB6900" transform="translate(43,5)"/>
<path d="M0 0 C0.99 0.33 1.98 0.66 3 1 C4.1875 4.5625 4.1875 4.5625 5 8 C3.35 8 1.7 8 0 8 C-0.38063221 5.6739143 -0.71269945 3.33944736 -1 1 C-0.67 0.67 -0.34 0.34 0 0 Z " fill="#EC6A00" transform="translate(19,5)"/>
<path d="M0 0 C0.33 0 0.66 0 1 0 C1.268125 0.969375 1.53625 1.93875 1.8125 2.9375 C2.204375 3.948125 2.59625 4.95875 3 6 C3.99 6.33 4.98 6.66 6 7 C6 7.66 6 8.32 6 9 C3.5625 8.625 3.5625 8.625 1 8 C-0.35439668 5.29120665 -0.06501451 2.99066732 0 0 Z M9 2 C9.66 2.33 10.32 2.66 11 3 C10.67 3.99 10.34 4.98 10 6 C7.9375 6.6875 7.9375 6.6875 6 7 C7.875 3.125 7.875 3.125 9 2 Z " fill="#FD9C22" transform="translate(12,29)"/>
<path d="M0 0 C0.33 0.99 0.66 1.98 1 3 C-0.36328125 4.97265625 -0.36328125 4.97265625 -2.3125 7.0625 C-2.94800781 7.75472656 -3.58351563 8.44695313 -4.23828125 9.16015625 C-5.47750012 10.4543294 -6.73300601 11.73300601 -8 13 C-8.33 12.01 -8.66 11.02 -9 10 C-6.03 6.7 -3.06 3.4 0 0 Z " fill="#180E03" transform="translate(14,20)"/>
<path d="M0 0 C1.98 0.495 1.98 0.495 4 1 C3.01 1 2.02 1 1 1 C0.67 2.65 0.34 4.3 0 6 C1.98 6 3.96 6 6 6 C6.33 6.66 6.66 7.32 7 8 C4.36 8.66 1.72 9.32 -1 10 C-1.125 2.25 -1.125 2.25 0 0 Z " fill="#3D2B03" transform="translate(23,30)"/>
<path d="M0 0 C2.01920337 1.30406884 4.01924973 2.63823419 6 4 C6 4.33 6 4.66 6 5 C2.04 5 -1.92 5 -6 5 C-6 4.01 -6 3.02 -6 2 C-4.02 2.495 -4.02 2.495 -2 3 C-1.34 2.01 -0.68 1.02 0 0 Z " fill="#E65700" transform="translate(35,25)"/>
<path d="M0 0 C1.98 0.495 1.98 0.495 4 1 C3.67 2.98 3.34 4.96 3 7 C1.68 6.67 0.36 6.34 -1 6 C-0.67 4.02 -0.34 2.04 0 0 Z " fill="#F19014" transform="translate(30,20)"/>
<path d="M0 0 C1.98 0 3.96 0 6 0 C6 2.31 6 4.62 6 7 C5.01 7.495 5.01 7.495 4 8 C4 6.35 4 4.7 4 3 C2.35 2.67 0.7 2.34 -1 2 C-0.67 1.34 -0.34 0.68 0 0 Z " fill="#FBA226" transform="translate(16,21)"/>
<path d="M0 0 C2.31 0 4.62 0 7 0 C6.34 1.32 5.68 2.64 5 4 C3.35 4 1.7 4 0 4 C0 2.68 0 1.36 0 0 Z " fill="#FFAB00" transform="translate(29,3)"/>
<path d="M0 0 C1.32 0.33 2.64 0.66 4 1 C4.32613618 5.67461851 3.70582788 8.16674383 1 12 C0.01 11.67 -0.98 11.34 -2 11 C-1.34 10.071875 -0.68 9.14375 0 8.1875 C2.26574554 5.20363444 2.26574554 5.20363444 2 2 C1.34 1.34 0.68 0.68 0 0 Z " fill="#E96A00" transform="translate(37,1)"/>
<path d="M0 0 C1.485 0.99 1.485 0.99 3 2 C3.1875 5.625 3.1875 5.625 3 9 C2.01 9.33 1.02 9.66 0 10 C0 6.7 0 3.4 0 0 Z " fill="#150E00" transform="translate(45,3)"/>
<path d="M0 0 C0.33 0 0.66 0 1 0 C1 1.65 1 3.3 1 5 C1.639375 5.12375 2.27875 5.2475 2.9375 5.375 C3.618125 5.58125 4.29875 5.7875 5 6 C5.33 6.66 5.66 7.32 6 8 C3.625 8.1875 3.625 8.1875 1 8 C-1 5 -1 5 -0.625 2.3125 C-0.41875 1.549375 -0.2125 0.78625 0 0 Z " fill="#F57B00" transform="translate(25,5)"/>
<path d="M0 0 C1.32 0 2.64 0 4 0 C4 0.66 4 1.32 4 2 C3.01 2.495 3.01 2.495 2 3 C0.94647157 5.30965848 -0.05719096 7.6429774 -1 10 C-1.66 9.67 -2.32 9.34 -3 9 C-2.01 6.03 -1.02 3.06 0 0 Z " fill="#381A00" transform="translate(41,3)"/>
</svg>
